<svg xmlns="http://www.w3.org/2000/svg" width="14" height="14" viewBox="0 0 576 512">
  <path fill="#444444" d="M534.9 267.5C560.1 280 576 305.8 576 334v4.39c0 35.55-23.49 68.35-58.24 75.88-38.18 8.26-74.96-13.73-86.76-49.14-.04-.1-.07-.21-.1-.31C425.3 347.7 409.6 336 391.6 336H184.4c-17.89 0-33.63 11.57-39.23 28.56L145 365.1c-11.8 35.41-48.58 57.4-86.76 49.14C23.49 406.7 0 373.9 0 338.4v-4.39C0 305.8 15.88 280 41.13 267.5c9.38-4.75 9.38-18.25 0-23C15.88 232 0 206.3 0 178V173.6c0-35.55 23.49-68.35 58.24-75.88 38.18-8.26 74.99 13.82 86.79 49.23C150.7 164.1 166.4 176 184.4 176h207.2c17.89 0 33.63-11.57 39.23-28.56L431 146.9c11.8-35.41 48.58-57.4 86.76-49.14C552.5 105.3 576 138.1 576 173.6v4.39C576 206.3 560.1 232 534.9 244.5c-9.4 4.8-9.4 18.3 0 23z"/>
</svg>
