<svg xmlns="http://www.w3.org/2000/svg" width="14" height="14" viewBox="0 0 512 512">
  <path fill="#444444" d="M256 224c-79.37 0-191.1 122.7-191.1 200.2 0 34.9 26.74 55.8 71.78 55.8 48.82 0 81.12-25.1 120.22-25.1 39.5 0 71.9 25.1 120.2 25.1 44.1 0 71.74-20.88 71.74-55.75C447.1 346.8 335.4 224 256 224zM108.8 211.4c-10.37-34.62-42.5-57.12-71.62-50.12S-7.1 202 3.27 236.6C13.64 271.3 45.77 293.8 74.89 286.8s44.21-40.8 33.91-75.4zm84.7-20.8c30.87-8.13 46.37-49.1 34.5-93.37s-46.5-71.1-77.49-63.87c-30.87 8.13-46.37 49.1-34.5 93.37 11.89 43.37 46.49 72.07 77.49 63.87zm281.4-29.3c-29.12-6.1-61.25 15.5-71.62 50.12-10.37 34.63 4.75 68.37 33.87 75.37 29.12 6.1 61.12-15.5 71.62-50.12C519.1 202 503.1 168.3 474.9 161.3zm-156.4 29.3c30.1 8.13 65.62-20.5 77.49-63.87 11.87-43.37-3.63-85.25-34.5-93.37-30.1-8.13-65.62 20.5-77.49 63.87-11.9 43.4 3.6 85.3 34.5 93.4z"/>
</svg>
