<svg xmlns="http://www.w3.org/2000/svg" width="414" height="896" viewBox="0 0 414 896">
  <path fill="#FFFFFF" fill-opacity="0.6" d="M-73.65 700.43C-130.03 637.83 45.68 433.49 34.97 299.48 24.73 171.2-56.74 88.13-15.75-37.91 47.92-233.7 303.68 49.79 335.57 234.91 371.39 442.83 20.51 804.98-73.65 700.43Z"/>
  <path fill="#F6C698" fill-opacity="0.8" d="M310.8 460.16C244.57 481.66 214.04 378.9 158.01 307.04 104.37 238.24 43.57 226.76 30.68 104.46 10.64-85.53 175.06-171.62 265.8-90.67 367.71 0.24 421.41 424.27 310.8 460.16Z"/>
  <path fill="none" stroke="#F6E8D3" stroke-opacity="0.6" stroke-width="1" d="M352.68 429.8C286.45 451.3 255.91 348.55 199.88 276.68 146.24 207.88 85.45 196.4 72.55 74.1 52.51-115.89 216.94-201.98 307.67-121.03 409.58-30.12 463.29 393.91 352.68 429.8Z"/>
</svg>
